<?xml version="1.0" encoding="UTF-8" standalone="no"?>
<!-- Generator: Adobe Illustrator 26.2.1, SVG Export Plug-In . SVG Version: 6.00 Build 0)  -->

<svg
   version="1.1"
   id="Ebene_1"
   x="0px"
   y="0px"
   viewBox="0 0 74.94 74.94"
   style="enable-background:new 0 0 74.94 74.94;"
   xml:space="preserve"
   sodipodi:docname="indeed_logo.svg"
   inkscape:export-filename="../grafikdesign/icon_indeed.png"
   inkscape:export-xdpi="96"
   inkscape:export-ydpi="96"
   inkscape:version="1.2.2 (b0a84865, 2022-12-01)"
   xmlns:inkscape="http://www.inkscape.org/namespaces/inkscape"
   xmlns:sodipodi="http://sodipodi.sourceforge.net/DTD/sodipodi-0.dtd"
   xmlns="http://www.w3.org/2000/svg"
   xmlns:svg="http://www.w3.org/2000/svg"><defs
   id="defs1087" /><sodipodi:namedview
   id="namedview1085"
   pagecolor="#ffffff"
   bordercolor="#666666"
   borderopacity="1.0"
   inkscape:showpageshadow="2"
   inkscape:pageopacity="0.0"
   inkscape:pagecheckerboard="0"
   inkscape:deskcolor="#d1d1d1"
   showgrid="false"
   inkscape:zoom="4.3123074"
   inkscape:cx="9.6236183"
   inkscape:cy="35.016057"
   inkscape:window-width="1440"
   inkscape:window-height="766"
   inkscape:window-x="0"
   inkscape:window-y="25"
   inkscape:window-maximized="1"
   inkscape:current-layer="g1082" />
<style
   type="text/css"
   id="style1074">
	.st0{fill:#020203;}
</style>
<g
   id="g1082">
	
	<path
   class="st0"
   d="M37.47,0C16.81,0,0,16.81,0,37.47c0,20.66,16.81,37.47,37.47,37.47s37.47-16.81,37.47-37.47   C74.94,16.81,58.13,0,37.47,0z M37.47,70.13c-18.01,0-32.66-14.65-32.66-32.67c0-18.01,14.65-32.66,32.66-32.66   c18.01,0,32.67,14.65,32.67,32.66C70.13,55.48,55.48,70.13,37.47,70.13z"
   id="path1080" />
<path
   style="fill:#000504;fill-opacity:1;fill-rule:nonzero;stroke:#788787;stroke-width:0.976708;stroke-linecap:square;stroke-linejoin:round;paint-order:fill markers stroke"
   d="m 34.369456,33.022314 c -2.31481,-0.85163 -4.0917,-3.33551 -4.0917,-5.71969 0,-1.53292 0.91021,-3.55366 2.05242,-4.55654 0.94625,-0.83081 3.19839,-1.73994 4.31028,-1.73994 1.69554,0 3.63948,0.77752 4.81524,1.92595 1.37339,1.34147 2.29032,3.52233 2.04407,4.86168 -0.6348,3.45259 -3.1929,5.60622 -6.61648,5.57034 -0.89718,-0.009 -2.02841,-0.16322 -2.51383,-0.3418 z"
   id="path3380" /><path
   style="fill:#000504;fill-opacity:1;fill-rule:nonzero;stroke:#788787;stroke-width:0.976708;stroke-linecap:square;stroke-linejoin:round;paint-order:fill markers stroke"
   d="m 15.728346,34.658594 c -0.0224,-1.28121 1.26392,-5.42334 2.5432,-8.1893 2.59993,-5.62131 7.13777,-10.39363 12.4357,-13.0783 2.85406,-1.44626 5.23103,-1.97025 8.91247,-1.96473 2.63714,0.004 3.43297,0.0968 4.85297,0.56609 3.07745,1.01705 5.5939,2.7691 6.62769,4.61445 0.61314,1.09446 0.39592,1.28014 -0.64535,0.55165 -2.02028,-1.41342 -4.71294,-2.5916 -7.07417,-3.09532 -2.73925,-0.58436 -7.13765,-0.3495 -9.5847,0.51179 -1.49929,0.5277 -3.65084,1.47253 -3.72061,1.63387 -0.0445,0.10287 -0.21443,0.18703 -0.37766,0.18703 -0.57116,0 -3.92536,2.55304 -5.73774,4.36725 -2.7856,2.78842 -4.87972,6.02898 -6.66449,10.31298 -0.2224,0.53382 -0.50438,1.1602 -0.62661,1.39193 -0.12224,0.23174 -0.22225,0.57408 -0.22225,0.76075 0,0.18668 -0.15952,0.70682 -0.35448,1.15587 -0.28977,0.66743 -0.35621,0.71745 -0.36397,0.27399 z"
   id="path3382" /><path
   style="fill:#000504;fill-opacity:1;fill-rule:nonzero;stroke:#788787;stroke-width:0.976708;stroke-linecap:square;stroke-linejoin:round;paint-order:fill markers stroke"
   d="m 35.870106,61.697084 c -1.32897,-0.42367 -2.52411,-1.79308 -2.86904,-3.28742 -0.20655,-0.8948 -0.29683,-4.12177 -0.29683,-10.60938 v -9.32346 l 1.88052,-0.004 c 1.91463,-0.004 4.72881,-0.5966 6.11164,-1.28644 l 0.76588,-0.38208 -0.0733,11.08823 c -0.0657,9.93234 -0.11661,11.16508 -0.48873,11.82536 -0.55998,0.99361 -1.63507,1.7503 -2.90191,2.04247 -1.20434,0.27776 -1.04399,0.28252 -2.12822,-0.0631 z"
   id="path3384" /></g>
</svg>
